<?xml version="1.0" encoding="UTF-8" standalone="no"?><!DOCTYPE svg PUBLIC "-//W3C//DTD SVG 1.1//EN" "http://www.w3.org/Graphics/SVG/1.1/DTD/svg11.dtd"><svg width="100%" height="100%" viewBox="0 0 45 30" version="1.1" xmlns="http://www.w3.org/2000/svg" xmlns:xlink="http://www.w3.org/1999/xlink" xml:space="preserve" xmlns:serif="http://www.serif.com/" style="fill-rule:evenodd;clip-rule:evenodd;stroke-linejoin:round;stroke-miterlimit:1.41421;"><g><g><path d="M38.824,25.512c-0.375,-1.8 -2.1,-3.075 -3.9,-2.925c-1.95,0.15 -3.375,1.575 -3.525,3.525c-0.15,1.875 1.05,3.375 3.15,3.975l1.35,0c0.45,-0.15 0.9,-0.3 1.275,-0.6c0.45,-0.3 0.825,-0.675 1.125,-1.05c0.3,-0.45 0.525,-0.975 0.6,-1.425c0.075,-0.45 0,-0.975 -0.075,-1.5Zm-3.675,2.625c-0.9,0 -1.65,-0.75 -1.65,-1.65c0,-0.975 0.75,-1.725 1.65,-1.725c0.975,0 1.65,0.75 1.65,1.65c0.075,0.975 -0.675,1.725 -1.65,1.725Z" style="fill-rule:nonzero;"/><path d="M14.074,25.512c-0.375,-1.8 -2.1,-3.075 -3.9,-2.925c-1.95,0.15 -3.375,1.575 -3.525,3.525c-0.15,1.875 1.05,3.375 3.15,3.975l1.35,0c0.375,-0.15 0.9,-0.3 1.275,-0.6c0.45,-0.3 0.825,-0.675 1.125,-1.05c0.3,-0.45 0.525,-0.975 0.6,-1.425c0.075,-0.45 0.075,-0.975 -0.075,-1.5Zm-3.6,2.625c-0.9,0 -1.65,-0.75 -1.65,-1.65c0,-0.975 0.75,-1.725 1.65,-1.725c0.975,0 1.65,0.75 1.65,1.65c0,0.975 -0.75,1.725 -1.65,1.725Z" style="fill-rule:nonzero;"/><path d="M44.749,19.737c-0.225,-0.225 -0.375,-0.525 -0.375,-0.825c-0.075,-2.1 -1.35,-3.825 -2.55,-5.4c-1.05,-1.425 -2.175,-3 -4.05,-3.3c-3.75,-0.525 -7.425,-0.75 -11.175,-0.6l0,1.725c0.375,0 0.825,-0.075 1.2,-0.075c0,0 1.2,-0.225 1.125,0.825l-0.45,4.2c0,0 -0.15,0.825 -0.825,0.9l-1.05,0.075l0,1.425l1.35,0c0.525,0 0.9,0.375 0.9,0.9c0,0.45 -0.45,0.825 -0.9,0.825l-1.35,0l0,7.2l3.15,0c-0.375,-1.95 0.075,-3.675 1.5,-5.1c1.125,-1.125 2.55,-1.65 4.2,-1.575c2.7,0.075 5.775,2.7 5.1,6.675l3.45,0l0.15,-0.075c2.025,-1.35 1.95,-6.075 0.6,-7.8Zm-5.175,-2.7l-8.775,0.15c0,0 -0.75,0 -0.675,-0.675l0.375,-4.5c0,0 0.225,-0.75 0.975,-0.525c0,0 3.3,0.675 4.875,1.275c0,0 2.775,1.125 3.9,2.85c0,0 0.375,0.525 0.45,0.6c0,0.225 0.3,0.825 -1.125,0.825Zm-29.7,-1.5c-2.25,0.45 -4.5,1.125 -6.525,2.475c-0.45,0.3 -0.825,0.6 -1.2,0.9c-0.9,0.825 -1.5,1.725 -1.8,2.7l1.275,0l0,0.525c0,0.525 -0.45,0.9 -1.05,0.9l-0.525,0c-0.075,0.75 -0.075,1.5 0.075,2.325c0.225,1.65 1.275,2.175 2.475,2.25l2.625,0c-0.75,-3.975 2.55,-6.75 5.55,-6.675c2.925,0.075 6,2.85 5.25,6.675l3.075,0l0,-10.05l-6,0.225c0,0 -0.675,-0.075 0.225,-0.9c0,0 1.5,-2.1 5.775,-3.9l0,-2.25c-3,0.9 -5.775,2.325 -8.4,4.35c-0.15,0.225 -0.525,0.375 -0.825,0.45Z" style="fill-rule:nonzero;"/></g><path d="M29.749,0.312c-1.65,-0.675 -3.075,-0.225 -4.35,1.05c-0.825,0.825 -1.65,1.65 -2.55,2.625c-0.975,-1.05 -1.875,-1.95 -2.775,-2.85c-1.2,-1.125 -2.625,-1.425 -4.2,-0.825c-1.5,0.6 -2.325,1.8 -2.4,3.45c-0.075,1.5 0.975,3.675 2.7,3.825c1.425,0.15 2.925,0 4.425,0l0,20.025l4.5,0l0,-20.025l2.1,0c1.275,0 2.4,0.225 3.45,-0.6c1.05,-0.75 1.5,-1.95 1.5,-3.15c0,-1.725 -0.825,-2.925 -2.4,-3.525Zm-8.85,5.025c-0.075,0.225 -0.45,0.45 -0.675,0.45c-0.525,0.075 -0.975,0 -1.5,0l-1.35,0c-0.9,0 -1.65,-0.6 -1.875,-1.425c-0.225,-0.825 0.15,-1.65 0.825,-2.1c0.675,-0.45 1.65,-0.45 2.325,0.15c0.75,0.675 1.425,1.35 2.1,2.1c0.15,0.225 0.225,0.6 0.15,0.825Zm9.3,-0.9c-0.225,0.825 -0.9,1.35 -1.8,1.425l-1.425,0c-0.45,0 -0.975,0.075 -1.425,0c-0.3,-0.075 -0.675,-0.225 -0.75,-0.45c-0.075,-0.225 0,-0.675 0.225,-0.9c0.675,-0.75 1.35,-1.425 2.1,-2.1c0.675,-0.6 1.575,-0.6 2.325,-0.15c0.675,0.525 0.975,1.35 0.75,2.175Z" style="fill-rule:nonzero;"/></g></svg>